<?xml version="1.0" standalone="no"?>
<!DOCTYPE svg PUBLIC "-//W3C//DTD SVG 20010904//EN"
 "http://www.w3.org/TR/2001/REC-SVG-20010904/DTD/svg10.dtd">
<svg version="1.0" xmlns="http://www.w3.org/2000/svg"
 width="600.000000pt" height="600.000000pt" viewBox="0 0 600.000000 600.000000"
 preserveAspectRatio="xMidYMid meet">

<g transform="translate(0.000000,600.000000) scale(0.100000,-0.100000)"
fill="#ffffff" stroke="none">
<path d="M1420 4923 c-222 -37 -437 -170 -566 -349 -59 -82 -119 -211 -146
-314 l-23 -85 0 -1225 c0 -1384 -5 -1287 80 -1465 74 -153 183 -264 330 -335
154 -75 300 -94 457 -62 217 45 389 170 504 364 47 81 452 839 674 1263 250
478 318 603 360 665 63 92 194 243 287 330 96 91 845 656 933 705 51 28 62 30
155 30 91 0 105 -3 158 -30 77 -38 158 -126 188 -202 26 -68 31 -193 10 -233
-13 -22 -232 -312 -486 -640 -107 -139 -202 -263 -429 -560 -94 -123 -196
-251 -226 -284 -124 -134 -291 -239 -466 -292 -80 -25 -104 -28 -244 -28 -138
0 -164 3 -240 26 -47 15 -85 26 -86 25 -15 -21 -214 -407 -214 -415 0 -14 129
-54 265 -84 145 -31 417 -31 562 0 135 29 258 73 372 133 229 120 368 251 628
594 349 460 532 700 557 730 l26 30 -3 -735 c-2 -725 -2 -736 -23 -781 -59
-128 -205 -183 -329 -125 -61 28 -100 71 -152 167 -22 41 -73 134 -113 207
l-72 132 -77 -75 c-83 -81 -170 -151 -243 -197 -27 -16 -48 -32 -48 -35 0 -15
154 -301 194 -362 92 -138 208 -232 356 -287 197 -75 385 -66 575 26 179 87
302 228 372 425 l28 80 0 1280 c0 1436 6 1324 -75 1492 -56 118 -107 189 -198
274 -157 147 -314 214 -527 226 -185 10 -349 -35 -504 -137 -114 -75 -742
-546 -856 -642 -113 -94 -229 -215 -331 -344 -133 -167 -165 -222 -479 -819
-87 -165 -237 -446 -333 -625 -96 -179 -197 -368 -224 -420 -123 -231 -159
-289 -204 -329 -101 -89 -233 -83 -331 15 -89 88 -83 -5 -83 1318 0 1276 -3
1216 62 1323 40 66 93 114 168 151 71 35 184 42 260 17 51 -17 235 -149 733
-528 103 -78 193 -143 200 -144 6 -1 40 35 74 80 34 45 101 126 148 180 47 53
83 102 79 108 -7 12 -657 501 -820 617 -126 90 -231 139 -348 163 -84 17 -230
23 -296 12z"/>
<path d="M3360 3481 c-123 -154 -161 -207 -211 -294 -32 -56 -59 -108 -59
-116 0 -14 281 -565 305 -598 12 -16 14 -16 41 2 57 37 168 152 241 248 l73
99 -74 141 c-150 288 -288 537 -296 537 -3 -1 -12 -9 -20 -19z"/>
</g>
</svg>
